<?xml version="1.0" encoding="utf-8"?>
<!-- Generator: Adobe Illustrator 19.1.0, SVG Export Plug-In . SVG Version: 6.00 Build 0)  -->
<!DOCTYPE svg PUBLIC "-//W3C//DTD SVG 1.1//EN" "http://www.w3.org/Graphics/SVG/1.1/DTD/svg11.dtd">
<svg version="1.1" id="Layer_1" xmlns="http://www.w3.org/2000/svg" xmlns:xlink="http://www.w3.org/1999/xlink" x="0px" y="0px"
	  viewBox="0 0 556.4455566 152.5695801"
	 style="enable-background:new 0 0 556.4455566 152.5695801;" xml:space="preserve">
<style type="text/css">
	.st0{fill:#A9A8A9;}
	.st1{fill:#009BDE;}
</style>
<g>
	<g>
		<path class="st0" d="M169.9349213,5.4800253h-19.3660278v4.9513378h19.3660278
			c5.7553711,0,10.4373169,4.5279045,10.4373169,10.0933256v54.2844315h4.9513397V20.5246887
			C185.3235779,12.2287102,178.420166,5.4800253,169.9349213,5.4800253z"/>
		<path class="st0" d="M2.1226928,20.5246887v54.2844315h4.9513378V20.5246887
			c0-5.5654211,4.6812525-10.0933256,10.4359388-10.0933256h19.1304836V5.4800253H17.5099697
			C9.0254164,5.4800253,2.1226928,12.2287102,2.1226928,20.5246887z"/>
	</g>
	<g>
		<path class="st1" d="M54.8681183,7.9555216C54.8681183,3.5617962,51.306324,0,46.9126854,0h-5.085434v15.9109564h5.085434
			C51.306324,15.9109564,54.8681183,12.3491602,54.8681183,7.9555216z"/>
		<path class="st1" d="M140.2967529,15.9109564h5.0854187V0h-5.0854187c-4.3936462,0-7.9555359,3.5617962-7.9555359,7.9555216
			C132.341217,12.3491602,135.9031067,15.9109564,140.2967529,15.9109564z"/>
	</g>
	<path class="st1" d="M178.2502441,79.9966965v18.23526c0,4.3952789-3.7300873,7.9713287-8.3139343,7.9713287H78.9927673
		l-23.5976028,29.959465v-29.959465H17.5099697c-4.5845461,0-8.3146276-3.5760498-8.3146276-7.9713287l0.0006905-18.23526H0.0006908
		L0,98.2319565c0,9.4654312,7.8545847,17.1666641,17.5099697,17.1666641h28.6898556v37.1709595h7.9781418l29.2770805-37.1709595
		h86.4812622c9.6539917,0,17.5092773-7.7012329,17.5092773-17.1666641v-18.23526H178.2502441z"/>
</g>
<g>
	<g>
		<path class="st1" d="M263.287323,96.7579803h-8.6921997l1.2878571-68.5690918l-11.2672272,68.5690918h-11.9108124
			l-11.3748322-68.5690918l1.5023804,68.5690918h-9.1212463V20.8921642h14.1643829l10.6236572,67.7109756l10.4091187-67.7109756
			h14.3789215V96.7579803z"/>
		<path class="st1" d="M303.742157,80.125473c0,3.6476593,0,6.3310013-0.9657288,9.1205521
			c-3.1123962,8.4776764-11.4817505,8.4776764-14.1643982,8.4776764c-3.2192993,0-10.6236572-0.4290543-13.7353516-8.2624435
			c-0.9656982-2.5757294-1.3954773-3.6490631-1.3954773-25.2177963c0-11.48106,0.9657288-21.9977913,14.8086853-21.9977913
			c3.4338379,0,13.3062744,0,15.0231934,11.6962852c0.4290771,2.6833382,0.4290771,4.1857262,0.4290771,17.7058411h-21.5687561
			c0,4.18573-0.107605,9.6586227,0.1069336,11.590065c0.2145081,2.0376663,0.6442871,7.6181717,6.7607422,7.6181717
			c6.2233887,0,6.7600708-5.2576675,6.7600708-10.7305603H303.742157z M295.6942139,64.6725159v-6.6524467
			c-0.107605-2.8971672-0.2145081-9.2281685-6.6531372-9.2281685c-4.3995361,0-5.6874084,2.7895546-6.2240906,4.5071716
			c-0.6435852,2.0376587-0.6435852,3.7552757-0.6435852,11.3734436H295.6942139z"/>
		<path class="st1" d="M345.1612854,96.7579803h-8.0479126v-5.6867218
			c-1.1802368,2.0376587-3.9704895,6.6524429-11.2672119,6.6524429c-1.0733337,0-2.2536011-0.1076126-3.3262329-0.4290543
			c-8.6921997-2.2528839-9.0143433-11.3748398-9.0143433-27.041626c0-5.0438385,0-15.0225067,1.2878723-19.2082329
			c1.5023804-5.0438385,5.5798035-8.9067307,11.4817505-8.9067307c6.1164856,0,8.6921997,3.2200089,10.1945801,5.2590637V20.9983807
			h8.6914978V96.7579803z M329.1723633,48.8995132c-6.4378967,0-6.6524353,6.5448303-6.8676453,10.8367767
			c-0.2145386,5.7957306-0.2145386,5.7957306-0.2145386,14.487236c0,2.3604965,0,5.1500549,0.2145386,8.4776688
			c0.21521,2.2528915,0.5366516,8.2624512,6.8676453,8.2624512c7.2974243,0,7.2974243-7.1905136,7.5119629-20.8182373
			C336.8988647,57.268177,336.8988647,48.8995132,329.1723633,48.8995132z"/>
	</g>
	<g>
		<path class="st0" d="M382.6106567,55.4443436c0-10.8381729,8.0479126-12.9834442,12.8765259-12.9834442
			c12.3405457,0,12.3405457,9.9786644,12.3405457,13.3062859v25.6454506c0,4.2933426-0.3214417,7.5119476-2.3604736,10.5167313
			c-3.4338379,5.0438385-9.2281799,5.0438385-10.4091187,5.0438385c-0.9657288,0-4.0767212,0-7.1891174-1.8252258
			c-4.6147766-2.5743332-5.2583618-6.7600632-5.2583618-11.3748474V55.4443436z M403.2129517,56.3024521
			c0-2.0376587,0-9.3343849-7.6181641-9.3343849c-8.3700562,0-8.3700562,7.081501-8.3700562,10.6229477v26.0759087
			c0,1.8238297,0,8.906723,7.7271729,8.906723c4.3981628,0,8.2610474-2.2542801,8.2610474-9.3357849V56.3024521z"/>
		<path class="st0" d="M422.9564514,52.2257347c1.5024109-3.220005,3.5414734-6.9752808,11.2672424-10.8381729v6.1157761
			c-4.2919617,1.1809502-7.4029541,2.3618965-11.1596069,11.1610146v38.0936279h-4.5071716V42.782341h4.3995361V52.2257347z"/>
		<path class="st0" d="M442.9151917,42.6747246h4.5071716v40.5631371c0,3.3262253,0.4290466,9.8710556,7.0815125,9.8710556
			c5.4728699,0,7.4043274-4.6133881,8.3700562-6.9738846V42.6747246h4.6147766v53.9756432h-4.6147766v-5.0438385
			c-1.3947754,1.8252258-4.1843262,5.3666763-9.7648315,5.3666763c-2.2528992,0-4.2919617-0.6442795-5.9019775-1.7176132
			c-4.2919312-2.897171-4.2919312-8.1548386-4.2919312-10.9457855V42.6747246z"/>
		<path class="st0" d="M482.9402771,47.2895088c1.0733337-1.288559,4.3995361-5.1514511,10.0862732-5.1514511
			c6.2247925,0,8.1562195,4.2933426,9.1219482,6.4386177c1.5023804-2.1452751,4.5071716-6.4386177,10.9458008-6.4386177
			c4.1843262,0,8.3686523,2.2542839,9.5496216,7.1905098c0.5366211,2.0390587,0.5366211,4.2919464,0.5366211,9.2281723v38.2012405
			h-4.6147461V58.1276817c0-4.2919426,0-5.7943344-0.4290771-7.404335c-0.9656982-3.6490631-4.2919312-4.399559-6.2233887-4.399559
			c-6.8676758,0-8.9067078,6.6524429-8.9067078,6.7600555v43.6741371h-4.6134033V54.1571808
			c0-1.0733376-0.107605-3.1123924-0.9671021-4.7223969c-1.0719604-1.8238335-3.3262329-3.1109962-5.9005737-3.1109962
			c-6.009552,0-8.6929016,5.5791092-8.6929016,5.901947v44.5322456h-4.6133728V42.782341h4.7210083V47.2895088z"/>
		<path class="st0" d="M535.5211182,82.4859695c0,3.3262253,0,10.087677,8.3700562,10.087677
			c4.1843262,0,7.9396362-1.7176132,7.9396362-9.0143433c0-5.688118-1.2871704-6.7600555-9.0129395-13.306282
			c-6.1171875-5.1500549-9.7648315-8.37006-9.7648315-16.0958405c0-4.6147842,1.1795044-11.5900688,11.3748169-11.5900688
			c11.2672119,0,11.2672119,8.6929016,11.2672119,12.8772316v3.7566757h-4.6147461c0-8.2638435,0-12.3405647-6.6524658-12.3405647
			c-6.7614746,0-6.7614746,4.6133881-6.7614746,6.9752846c0,4.8286133,0.215271,6.3310013,10.6243896,14.9148941
			c5.1500244,4.18573,8.1547852,6.7600555,8.1547852,14.7010574c0,4.0781174-0.8580933,8.1548386-3.862854,10.7305603
			c-1.7176514,1.394783-4.3995972,2.683342-8.6915283,2.683342c-6.7614136,0-9.2295532-2.7909546-9.9800415-3.6490631
			c-2.8971558-3.1109924-2.8971558-7.1891098-2.8971558-15.451561h4.5071411V82.4859695z"/>
		<polygon class="st0" points="356.3216248,20.9983807 356.3216248,96.7579803 361.5792847,96.7579803 361.5792847,59.5224609 
			374.5337219,59.5224609 374.5337219,54.9076767 361.5792847,54.9076767 361.5792847,25.7207775 383.1480103,25.7207775 
			383.1480103,20.9983807 		"/>
	</g>
</g>
</svg>
